<?xml version="1.0" encoding="utf-8"?>
<svg id="svg3336" width="16" height="16" viewBox="0 0 20 20" xmlns="http://www.w3.org/2000/svg">
  <path d="M 8.79 12.63 C 8.79 12.057 8.583 11.613 8.17 11.3 C 7.763 10.993 7.03 10.667 5.97 10.32 C 4.91 9.98 4.07 9.643 3.45 9.31 C 1.763 8.397 0.92 7.17 0.92 5.63 C 0.92 4.823 1.147 4.107 1.6 3.48 C 2.053 2.853 2.703 2.363 3.55 2.01 C 4.397 1.657 5.3469999999999995 1.48 6.4 1.48 C 7.46 1.48 8.403 1.67 9.23 2.05 C 10.063 2.4370000000000003 10.71 2.98 11.17 3.6799999999999997 C 11.63 4.38 11.86 5.177 11.86 6.07 L 8.8 6.07 C 8.8 5.39 8.583 4.86 8.15 4.48 C 7.723 4.1 7.123 3.91 6.35 3.91 C 5.603 3.91 5.02 4.07 4.6 4.39 C 4.187 4.703 3.98 5.12 3.98 5.64 C 3.98 6.12 4.223 6.523 4.71 6.85 C 5.197 7.177 5.913 7.483 6.86 7.77 C 8.6 8.29 9.867 8.94 10.66 9.72 C 11.46 10.493 11.86 11.457 11.86 12.61 C 11.86 13.897 11.373 14.907 10.4 15.64 C 9.427 16.367 8.117 16.73 6.47 16.73 C 5.33 16.73 4.29 16.523 3.35 16.11 C 2.41 15.69 1.693 15.117 1.2 14.39 C 0.707 13.663 0.46 12.82 0.46 11.86 L 3.5300000000000002 11.86 C 3.5300000000000002 13.5 4.51 14.32 6.47 14.32 C 7.197 14.32 7.763 14.17 8.17 13.870000000000001 C 8.583 13.577 8.79 13.163 8.79 12.63 Z" transform="matrix(0.8990210294723511, 0, 0, 0.9096890091896057, 0.3627600073814392, 1.4483410120010376)" style="fill: rgb(136, 136, 136); white-space: pre;"/>
  <path d="M 20.77 16.53 L 17.82 16.53 L 17.82 5.17 L 14.3 6.26 L 14.3 3.8600000000000003 L 20.45 1.66 L 20.77 1.66 L 20.77 16.53 Z" transform="matrix(0.8990210294723511, 0, 0, 0.9096890091896057, 0.3627600073814392, 1.4483410120010376)" style="fill: rgb(136, 136, 136); white-space: pre;"/>
</svg>